<?xml version="1.0" standalone="no"?>
<!DOCTYPE svg PUBLIC "-//W3C//DTD SVG 20010904//EN"
 "http://www.w3.org/TR/2001/REC-SVG-20010904/DTD/svg10.dtd">
<svg version="1.0" xmlns="http://www.w3.org/2000/svg"
 width="746.000000pt" height="746.000000pt" viewBox="0 0 746.000000 746.000000"
 preserveAspectRatio="xMidYMid meet">

<g transform="translate(0.000000,746.000000) scale(0.100000,-0.100000)"
fill="#000000" stroke="none">
<path d="M3613 7419 c-50 -25 -88 -78 -113 -156 -10 -32 -57 -204 -105 -383
-48 -179 -89 -326 -91 -328 -1 -2 -57 -14 -123 -27 -246 -48 -441 -109 -661
-207 -285 -126 -583 -322 -802 -527 -36 -33 -68 -61 -71 -61 -2 0 -131 72
-286 160 -154 88 -307 173 -340 189 -109 55 -178 51 -242 -15 -32 -33 -34 -39
-34 -107 0 -87 -11 -65 243 -494 l191 -321 -74 -144 c-108 -210 -160 -337
-221 -546 -28 -98 -69 -287 -79 -374 l-7 -58 -57 0 c-51 0 -497 -108 -586
-142 -81 -31 -125 -88 -125 -161 0 -56 30 -102 90 -139 51 -32 504 -155 606
-165 l61 -6 7 -71 c26 -287 134 -652 281 -949 l73 -149 -181 -301 c-216 -362
-227 -385 -227 -457 0 -69 24 -112 79 -140 86 -43 129 -28 477 171 l270 156
102 -98 c434 -415 975 -690 1550 -788 63 -10 116 -21 118 -24 3 -3 43 -142 89
-311 46 -168 91 -318 99 -334 61 -117 189 -142 270 -52 44 49 60 94 147 415
40 149 73 271 73 271 1 1 60 9 131 18 608 77 1213 366 1647 784 l97 94 238
-135 c297 -168 313 -176 366 -183 84 -12 164 45 183 129 13 59 -17 124 -192
422 -96 164 -174 302 -174 309 0 6 10 27 22 46 38 62 137 268 177 368 92 231
160 504 186 748 l7 61 60 7 c77 8 536 129 586 155 147 76 138 243 -17 309 -89
39 -512 145 -578 146 -35 1 -63 4 -63 8 0 33 -58 308 -85 405 -63 225 -180
498 -290 680 -26 42 -44 81 -42 87 3 6 89 153 191 326 195 330 223 390 211
463 -11 60 -65 113 -128 122 -73 11 -123 -11 -441 -192 -185 -105 -294 -162
-302 -157 -6 5 -69 58 -140 117 -269 226 -558 393 -893 516 -184 68 -479 138
-653 156 -68 7 -68 7 -78 44 -88 331 -181 673 -190 696 -21 55 -62 104 -104
125 -53 25 -80 25 -133 -1z m231 -1061 c86 -317 156 -585 156 -596 0 -48 -24
-52 -321 -52 -153 0 -285 3 -293 6 -46 18 -45 21 125 651 104 385 166 597 170
585 4 -10 77 -278 163 -594z m-2121 -958 c487 -277 502 -286 502 -315 0 -26
-29 -59 -206 -232 -158 -157 -211 -203 -230 -203 -26 0 -51 21 -61 50 -3 8
-141 244 -307 524 -165 280 -301 511 -301 513 0 5 -9 10 603 -337z m4262 -192
c-169 -288 -316 -531 -327 -540 -11 -10 -30 -18 -41 -18 -14 0 -89 68 -220
198 -109 108 -203 205 -208 215 -8 13 -7 24 3 39 13 19 1089 639 1097 632 2
-2 -135 -238 -304 -526z m-2151 -1146 c222 -100 294 -374 148 -566 -166 -219
-499 -185 -629 64 -26 50 -28 64 -28 160 0 91 3 112 25 155 45 93 121 159 229
201 55 21 194 13 255 -14z m-1998 -1301 c21 -16 117 -107 212 -203 154 -156
173 -178 170 -204 -3 -27 -25 -41 -283 -187 -238 -134 -642 -367 -779 -448
l-39 -22 13 24 c69 130 607 1029 626 1047 32 28 33 28 80 -7z m3821 7 c15 -17
415 -691 630 -1061 7 -11 -8 -3 -217 118 -96 56 -332 191 -523 299 -346 197
-383 223 -361 257 5 8 100 103 210 212 123 120 209 197 221 197 11 0 29 -10
40 -22z m-1677 -1058 c11 -11 20 -28 20 -37 0 -13 -287 -1087 -317 -1188 -7
-22 -46 114 -223 764 -61 223 -110 414 -110 425 0 10 7 28 17 38 15 17 38 18
305 18 275 0 289 -1 308 -20z"/>
</g>
</svg>
